<?xml version="1.0" standalone="no"?>
<!DOCTYPE svg PUBLIC "-//W3C//DTD SVG 20010904//EN"
 "http://www.w3.org/TR/2001/REC-SVG-20010904/DTD/svg10.dtd">
<svg version="1.0" xmlns="http://www.w3.org/2000/svg"
 width="1573.000000pt" height="1573.000000pt" viewBox="0 0 1573.000000 1573.000000"
 preserveAspectRatio="xMidYMid meet">
<metadata>
Created by potrace 1.14, written by Peter Selinger 2001-2017
</metadata>
<g transform="translate(0.000000,1573.000000) scale(0.100000,-0.100000)"
fill="#000000" stroke="none">
<path d="M3809 14466 c-2 -2 -33 -6 -69 -10 -181 -16 -283 -34 -468 -82 -356
-92 -716 -271 -1004 -499 -68 -53 -71 -70 -30 -136 74 -115 323 -304 962 -729
125 -83 82 -54 377 -253 272 -183 251 -169 422 -296 292 -217 436 -370 418
-443 -4 -15 -27 -48 -51 -75 -24 -26 -71 -82 -105 -123 -34 -41 -70 -84 -79
-95 -134 -160 -382 -493 -524 -700 -301 -443 -557 -907 -758 -1375 -18 -41
-39 -90 -47 -109 -119 -271 -343 -980 -397 -1256 -2 -11 -11 -50 -20 -86 -8
-37 -17 -78 -20 -90 -2 -13 -15 -87 -29 -164 -15 -77 -29 -153 -32 -170 -3
-16 -10 -61 -15 -100 -6 -38 -12 -77 -15 -85 -2 -8 -6 -40 -10 -70 -3 -30 -7
-66 -10 -80 -5 -30 -32 -254 -40 -330 -3 -30 -8 -75 -10 -100 -3 -25 -7 -74
-10 -110 -3 -36 -7 -85 -10 -110 -4 -42 -8 -104 -20 -270 -2 -36 -7 -114 -10
-175 -3 -60 -8 -141 -10 -180 -6 -95 -19 -502 -30 -920 -11 -437 -16 -602 -20
-634 -12 -92 -110 -214 -221 -272 -108 -57 -190 -102 -204 -114 -8 -7 -31 -21
-50 -30 -30 -15 -274 -173 -305 -197 -5 -4 -55 -42 -110 -84 -171 -131 -252
-203 -400 -354 -110 -112 -135 -140 -184 -200 -20 -25 -38 -47 -41 -50 -30
-30 -220 -301 -220 -314 0 -3 -15 -29 -34 -58 -28 -46 -106 -200 -159 -318
-44 -99 -136 -403 -153 -508 -2 -15 -7 -38 -9 -52 -3 -14 -8 -42 -11 -64 -3
-21 -7 -48 -10 -59 -10 -55 -19 -207 -19 -337 0 -144 0 -146 33 -212 19 -39
49 -80 70 -98 102 -85 159 -51 537 318 375 367 493 444 772 502 86 18 120 19
278 14 195 -7 362 -6 410 2 213 34 330 84 479 205 l87 70 52 -39 c105 -81 270
-172 376 -207 46 -15 76 -16 215 -11 88 4 184 8 211 10 28 2 100 7 160 11 61
4 126 8 145 10 103 10 205 17 286 20 192 6 353 -65 521 -228 104 -101 122
-114 206 -158 76 -39 106 -36 130 14 11 20 21 50 23 65 2 15 8 54 13 87 14 91
11 349 -5 445 -7 47 -16 103 -19 124 -11 67 -83 290 -126 388 -167 382 -465
759 -849 1073 -92 76 -148 118 -281 213 -163 116 -158 174 46 582 154 308 406
742 574 989 9 13 21 31 26 40 93 148 362 513 534 726 143 178 262 317 372 436
14 16 57 63 95 105 132 145 513 521 640 631 34 29 156 137 168 148 29 27 202
170 291 241 55 43 102 81 105 84 6 6 280 208 355 262 164 116 473 314 625 400
25 14 63 36 85 48 114 65 312 163 400 200 55 23 109 45 120 50 67 29 70 23 15
-33 -83 -84 -158 -163 -240 -257 -41 -47 -79 -90 -85 -96 -41 -45 -157 -185
-369 -444 -129 -159 -346 -460 -409 -567 -40 -69 -67 -141 -60 -159 2 -7 29
-15 60 -19 30 -4 65 -8 77 -10 210 -36 734 -41 956 -9 428 61 752 160 1095
335 141 72 203 105 223 121 7 6 26 18 42 27 46 25 256 173 334 235 193 155
409 369 571 566 169 207 250 283 386 363 176 103 397 171 658 202 30 4 61 8
70 10 9 1 52 6 96 9 44 4 100 9 125 11 131 15 380 28 725 40 110 4 247 8 305
11 58 2 481 6 940 8 459 3 878 8 930 11 130 7 228 14 270 20 19 3 55 7 80 10
471 57 739 174 754 329 7 74 -67 178 -182 256 -28 19 -52 38 -52 41 0 4 17 26
38 49 60 69 112 141 128 178 34 81 7 183 -77 298 -46 63 -214 228 -343 337
-27 23 -70 60 -95 82 -26 22 -95 78 -154 124 -92 72 -106 87 -100 105 12 33 8
226 -6 282 -7 29 -14 58 -15 65 -35 174 -168 476 -314 709 -536 858 -1492
1457 -2702 1694 -169 33 -385 66 -520 80 -175 18 -253 24 -375 31 -60 4 -135
8 -165 10 -327 23 -1117 23 -1425 0 -27 -2 -97 -6 -155 -10 -58 -4 -116 -8
-130 -10 -14 -2 -59 -6 -100 -10 -41 -4 -86 -8 -100 -10 -14 -2 -54 -6 -90
-10 -36 -3 -72 -8 -80 -10 -8 -2 -40 -7 -70 -10 -65 -7 -74 -9 -205 -30 -407
-66 -692 -139 -1200 -305 -243 -80 -320 -100 -391 -100 -124 0 -307 57 -611
192 -541 239 -1001 401 -1344 472 -109 23 -300 56 -374 65 -49 6 -106 14 -125
17 -43 6 -575 16 -581 10z m9051 -2966 c41 -21 90 -73 117 -123 25 -46 24
-169 -1 -221 -46 -92 -139 -150 -241 -150 -189 0 -320 207 -235 373 70 138
225 190 360 121z"/>
<path d="M12847 9274 c-1 -1 -117 -5 -257 -9 -140 -4 -280 -8 -310 -10 -30 -2
-115 -6 -188 -9 -74 -4 -157 -8 -185 -11 -29 -2 -92 -7 -142 -10 -97 -7 -151
-12 -230 -21 -108 -11 -141 -15 -165 -19 -14 -2 -45 -6 -70 -10 -25 -3 -65
-15 -90 -26 -41 -18 -52 -33 -130 -161 -47 -77 -87 -146 -89 -152 -2 -6 -22
-40 -44 -76 -59 -96 -183 -348 -197 -399 -6 -23 -9 -48 -7 -55 7 -17 61 -21
317 -21 262 0 338 6 540 46 417 81 810 273 1150 564 96 82 360 360 360 379 0
4 -259 3 -263 0z"/>
</g>
</svg>
